<svg xmlns="http://www.w3.org/2000/svg" width="18.901" height="17.539" viewBox="0 0 18.901 17.539"><defs><style>.a{fill:none;stroke:#8d8dae;stroke-linecap:round;stroke-linejoin:round;stroke-miterlimit:10;stroke-width:1.2px;}</style></defs><g transform="translate(0.6 0.6)"><path class="a" d="M10.893,13.616H1.362A1.362,1.362,0,0,1,0,12.254V0H12.254V12.254A1.362,1.362,0,0,1,10.893,13.616Z" transform="translate(2.723 2.723)"/><path class="a" d="M.4,5.446V0" transform="translate(6.408 6.808)"/><path class="a" d="M.4,5.446V0" transform="translate(10.493 6.808)"/><path class="a" d="M0,.4H17.7" transform="translate(0 2.323)"/><path class="a" d="M5.446,0H1.362A1.362,1.362,0,0,0,0,1.362V2.723H6.808V1.362A1.362,1.362,0,0,0,5.446,0Z" transform="translate(5.446)"/></g></svg>