<svg xmlns="http://www.w3.org/2000/svg" xmlns:xlink="http://www.w3.org/1999/xlink" width="95.759" height="95.759" viewBox="0 0 95.759 95.759"><defs><style>.a{fill:#c9676f;}.b{fill:#fff;}.c{fill:none;stroke:#fd808b;stroke-linecap:round;stroke-width:3px;}.d{filter:url(#a);}</style><filter id="a" x="0" y="0" width="95.759" height="95.759" filterUnits="userSpaceOnUse"><feOffset input="SourceAlpha"/><feGaussianBlur stdDeviation="5" result="b"/><feFlood flood-color="#191919" flood-opacity="0.294"/><feComposite operator="in" in2="b"/><feComposite in="SourceGraphic"/></filter></defs><g transform="translate(-1514.337 -620.859)"><g transform="translate(1529.337 635.859)"><g class="d" transform="matrix(1, 0, 0, 1, -15, -15)"><circle class="a" cx="32.879" cy="32.879" r="32.879" transform="translate(15 15)"/></g><path class="b" d="M644.968,353.321a23.3,23.3,0,0,1,2.988.565l.02.005a21.758,21.758,0,0,1,3.487,1.216,22.212,22.212,0,0,1,3.221,1.779,22.6,22.6,0,0,1,7.763,8.735,21.323,21.323,0,0,1,2.22,7.2,23.076,23.076,0,0,1-.224,7.2,22.69,22.69,0,0,1-22.768,18.353,20.844,20.844,0,0,1-7.223-1.42c-.5-.2-.93.143-1.355.365-1.84.961-3.739,1.812-5.6,2.727a11.156,11.156,0,0,0-1.075.547.286.286,0,0,1-.16.058c-.316-.014-.131-.872-.126-1.049.017-.534.017-1.068.027-1.6q.029-1.6.068-3.207.014-.577.029-1.154c.021-.8.214-1.673-.39-2.3A21.982,21.982,0,0,1,621,383.523a22.763,22.763,0,0,1,8.092-26.158,20.53,20.53,0,0,1,3.14-1.9,22.754,22.754,0,0,1,3.412-1.338q.885-.269,1.788-.473a21.148,21.148,0,0,1,4.013-.49A23.064,23.064,0,0,1,644.968,353.321Z" transform="translate(-609.367 -344.02)"/></g><path class="c" d="M0,0,6.33,6.33l4.924,4.924" transform="translate(1556.59 663.491)"/><line class="c" x1="11.254" y2="11.254" transform="translate(1556.59 663.491)"/></g></svg>