<svg xmlns="http://www.w3.org/2000/svg" xmlns:xlink="http://www.w3.org/1999/xlink" width="74" height="74" viewBox="0 0 74 74"><defs><style>.a,.d,.e{fill:#b2b2b2;}.a{stroke:#9b9b9b;opacity:0.179;}.b{fill:#fff;}.b,.c,.d{stroke:rgba(0,0,0,0);}.c{fill:none;}.e{stroke:#fff;stroke-width:1.5px;}.f{filter:url(#a);}</style><filter id="a" x="0" y="0" width="74" height="74" filterUnits="userSpaceOnUse"><feOffset dy="6" input="SourceAlpha"/><feGaussianBlur stdDeviation="3" result="b"/><feFlood flood-opacity="0.039"/><feComposite operator="in" in2="b"/><feComposite in="SourceGraphic"/></filter></defs><g transform="translate(9.5 3.5)"><g transform="translate(0 0.315)"><g class="f" transform="matrix(1, 0, 0, 1, -9.5, -3.82)"><path class="a" d="M27.5,0A27.5,27.5,0,1,1,0,27.5,27.5,27.5,0,0,1,27.5,0Z" transform="translate(9.5 3.5)"/></g><g transform="translate(14.515 15.656)"><g transform="translate(0 0)"><ellipse class="b" cx="3.462" cy="3.462" rx="3.462" ry="3.462" transform="translate(9.522 9.522)"/><path class="c" d="M0,0H25.969V25.969H0Z"/><path class="d" d="M2.1,19.35A2.134,2.134,0,0,1,0,17.2V4.3A2.134,2.134,0,0,1,2.1,2.15H5.437L7.361,0h6.31L15.6,2.15H18.93a2.134,2.134,0,0,1,2.1,2.15V17.2a2.134,2.134,0,0,1-2.1,2.15Z" transform="translate(2.337 1.758)"/></g><path class="e" d="M4.76,9.52A4.76,4.76,0,1,1,9.52,4.76,4.762,4.762,0,0,1,4.76,9.52Z" transform="translate(8.224 7.535)"/></g></g></g></svg>