<svg xmlns="http://www.w3.org/2000/svg" width="38" height="40" viewBox="0 0 38 40"><defs><style>.a{fill:#68c7cb;opacity:0.156;}.b{fill:none;stroke:#68c7cb;stroke-linecap:round;stroke-linejoin:round;stroke-miterlimit:10;stroke-width:1.2px;}</style></defs><g transform="translate(-1243 -719)"><g transform="translate(202.89 -1167.435)"><rect class="a" width="38" height="40" rx="5" transform="translate(1040.111 1886.435)"/></g><g transform="translate(918 -143.777)"><g transform="translate(334 873.777)"><path class="b" d="M12.151,15.189H1.519A1.519,1.519,0,0,1,0,13.67V0H13.67V13.67A1.519,1.519,0,0,1,12.151,15.189Z" transform="translate(3.038 3.038)"/><path class="b" d="M.4,6.076V0" transform="translate(7.195 7.595)"/><path class="b" d="M.4,6.076V0" transform="translate(11.751 7.595)"/><path class="b" d="M0,.4H19.746" transform="translate(0 2.638)"/><path class="b" d="M6.076,0H1.519A1.519,1.519,0,0,0,0,1.519V3.038H7.595V1.519A1.519,1.519,0,0,0,6.076,0Z" transform="translate(6.076)"/></g></g></g></svg>