<svg xmlns="http://www.w3.org/2000/svg" width="14.305" height="15.279" viewBox="0 0 14.305 15.279"><defs><style>.a{fill:#358a8d;stroke:#358a8d;stroke-width:0.3px;fill-rule:evenodd;}</style></defs><g transform="translate(-1.45 -2.1)"><path class="a" d="M.438,18a.5.5,0,0,1,.438.538V22.3a.991.991,0,0,0,.875,1.075h10.5a.991.991,0,0,0,.875-1.075V18.538a.447.447,0,1,1,.875,0V22.3a1.982,1.982,0,0,1-1.751,2.151H1.751A1.982,1.982,0,0,1,0,22.3V18.538A.5.5,0,0,1,.438,18Z" transform="translate(1.6 -7.223)"/><path class="a" d="M11.078,16.7a.538.538,0,0,1,.76,0L14.3,19.168,16.769,16.7a.538.538,0,0,1,.76.76L14.684,20.31a.538.538,0,0,1-.761,0l-2.845-2.846a.538.538,0,0,1,0-.76Z" transform="translate(-5.702 -7.464)"/><path class="a" d="M17.413,2.25a.538.538,0,0,1,.538.538v8.6a.538.538,0,0,1-1.075,0v-8.6A.538.538,0,0,1,17.413,2.25Z" transform="translate(-8.81)"/></g></svg>