<svg xmlns="http://www.w3.org/2000/svg" width="17.523" height="17.523" viewBox="0 0 17.523 17.523"><defs><style>.a,.b{fill:none;stroke:#8d8dae;stroke-linejoin:round;stroke-width:1.5px;}.b{stroke-linecap:round;}</style></defs><g transform="translate(-2.625 -2.624)"><path class="a" d="M11.2,9h8.55a2.2,2.2,0,0,1,2.2,2.2v8.55a2.2,2.2,0,0,1-2.2,2.2H11.2a2.2,2.2,0,0,1-2.2-2.2V11.2A2.2,2.2,0,0,1,11.2,9Z" transform="translate(-2.544 -2.544)"/><path class="b" d="M16.3,6.456l.019-.925a2.163,2.163,0,0,0-2.157-2.157H5.84A2.472,2.472,0,0,0,3.375,5.839v8.32a2.163,2.163,0,0,0,2.157,2.157h.925"/><path class="b" d="M20.813,15.188v6.163" transform="translate(-7.886 -5.342)"/><path class="b" d="M21.351,20.813H15.188" transform="translate(-5.342 -7.886)"/></g></svg>