<svg xmlns="http://www.w3.org/2000/svg" width="17.359" height="17.279" viewBox="0 0 17.359 17.279"><defs><style>.a{fill:#fff;}</style></defs><g transform="translate(-2 -2)"><path class="a" d="M14.147,9.259h-7.6A.543.543,0,0,1,6,8.716V6.543A.543.543,0,0,1,6.543,6h7.6a.543.543,0,0,1,.543.543V8.716A.543.543,0,0,1,14.147,9.259ZM7.086,8.172H13.6V7.054H7.086Z" transform="translate(-1.828 -1.828)"/><path class="a" d="M14.147,14.08h-7.6A.543.543,0,0,0,6,14.623v2.129a.543.543,0,0,0,.543.543h6.17l1.977-2.01v-.663a.543.543,0,0,0-.543-.543ZM13.6,16.209H7.086V15.123H13.6Z" transform="translate(-1.828 -5.519)"/><path class="a" d="M6.921,18.027v-.033l.174-.755H3.086V3.086H13.949V8.653l1.086-1.026V2.543A.543.543,0,0,0,14.492,2H2.543A.543.543,0,0,0,2,2.543V17.751a.543.543,0,0,0,.543.543H6.888a1.868,1.868,0,0,1,.033-.266Z"/><path class="a" d="M21.644,19.17l-.424.429a.543.543,0,0,0,.424-.429Z" transform="translate(-8.781 -7.845)"/><path class="a" d="M6,24.683a.543.543,0,0,0,.543.543H9.172l.163-.706.071-.3v-.027H7.086V23.086H10.53L11.616,22H6.543A.543.543,0,0,0,6,22.543Z" transform="translate(-1.828 -9.138)"/><path class="a" d="M24.114,14.914l-1.83-1.83a.874.874,0,0,0-1.238,0L13.6,20.573l-.614,2.612a.874.874,0,0,0,.684,1.032.842.842,0,0,0,.168,0,.625.625,0,0,0,.2,0l2.634-.581,7.441-7.457a.869.869,0,0,0,0-1.233Zm-7.995,7.734-1.988.44.483-1.972L20.2,15.474l1.532,1.532Zm6.224-6.257L20.812,14.86l.864-.853,1.542,1.542Z" transform="translate(-5.011 -4.947)"/></g></svg>