<svg xmlns="http://www.w3.org/2000/svg" width="15.12" height="14.049" viewBox="0 0 15.12 14.049"><defs><style>.a{fill:none;stroke:#358a8d;stroke-linecap:round;stroke-linejoin:round;stroke-miterlimit:10;stroke-width:1.2px;}</style></defs><g transform="translate(-333.4 -873.177)"><g transform="translate(334 873.777)"><path class="a" d="M8.566,10.708h-7.5A1.071,1.071,0,0,1,0,9.637V0H9.637V9.637A1.071,1.071,0,0,1,8.566,10.708Z" transform="translate(2.142 2.142)"/><path class="a" d="M.4,4.283V0" transform="translate(4.954 5.354)"/><path class="a" d="M.4,4.283V0" transform="translate(8.166 5.354)"/><path class="a" d="M0,.4H13.92" transform="translate(0 1.742)"/><path class="a" d="M4.283,0H1.071A1.071,1.071,0,0,0,0,1.071V2.142H5.354V1.071A1.071,1.071,0,0,0,4.283,0Z" transform="translate(4.283)"/></g></g></svg>