<svg xmlns="http://www.w3.org/2000/svg" width="24.363" height="23.361" viewBox="0 0 24.363 23.361"><defs><style>.a{fill:#44d7b6;}</style></defs><g transform="translate(-5.319 -6.319)"><path class="a" d="M13.323,10.9h0a.816.816,0,0,0,.809.816H28.865a.817.817,0,0,0,.813-.816h0V7.134a.817.817,0,0,0-.817-.815H14.136a.817.817,0,0,0-.817.817c0,.014,0,.027,0,.041V10.9Z"/><path class="a" d="M23.323,10.9h0a.816.816,0,0,0,.809.816h4.729a.817.817,0,0,0,.813-.816h0V7.134a.817.817,0,0,0-.817-.815H24.136a.817.817,0,0,0-.817.817c0,.014,0,.027,0,.041V10.9Z" transform="translate(-18)"/><path class="a" d="M28.864,15.3H14.136a.817.817,0,0,0-.817.817c0,.014,0,.027,0,.041v3.722h0a.816.816,0,0,0,.809.816H28.865a.817.817,0,0,0,.813-.816h0V16.117a.818.818,0,0,0-.818-.815Z"/><path class="a" d="M28.864,15.3H24.136a.817.817,0,0,0-.817.817c0,.014,0,.027,0,.041v3.722h0a.816.816,0,0,0,.809.816h4.729a.817.817,0,0,0,.813-.816h0V16.117a.818.818,0,0,0-.818-.815Z" transform="translate(-18)"/><path class="a" d="M28.864,24.283H14.136a.817.817,0,0,0-.817.817c0,.014,0,.027,0,.041v3.722h0a.816.816,0,0,0,.809.816H28.865a.817.817,0,0,0,.813-.817h0V25.1a.818.818,0,0,0-.818-.815Z"/><path class="a" d="M28.864,24.283H24.136a.817.817,0,0,0-.817.817c0,.014,0,.027,0,.041v3.722h0a.816.816,0,0,0,.809.816h4.729a.817.817,0,0,0,.813-.817h0V25.1a.818.818,0,0,0-.818-.815Z" transform="translate(-18)"/></g></svg>