<svg xmlns="http://www.w3.org/2000/svg" width="24.877" height="25.451" viewBox="0 0 24.877 25.451"><defs><style>.a{fill:none;stroke:#fff;stroke-linecap:round;stroke-linejoin:round;stroke-width:1.6px;}</style></defs><path class="a" d="M15.316,11.33a3.567,3.567,0,1,0,3.2,3.2A3.567,3.567,0,0,0,15.316,11.33ZM23.9,14.879a8.6,8.6,0,0,1-.086,1.159l2.52,1.976a.6.6,0,0,1,.136.766L24.091,22.9a.6.6,0,0,1-.732.256l-2.5-1.007a.9.9,0,0,0-.846.1,9.167,9.167,0,0,1-1.2.7.888.888,0,0,0-.491.677l-.375,2.669a.617.617,0,0,1-.6.511H12.583a.619.619,0,0,1-.6-.495l-.374-2.665a.9.9,0,0,0-.5-.681,8.655,8.655,0,0,1-1.2-.7.892.892,0,0,0-.842-.1l-2.5,1.007a.6.6,0,0,1-.732-.255L3.457,18.8a.6.6,0,0,1,.136-.766l2.13-1.672a.9.9,0,0,0,.334-.785c-.02-.232-.032-.464-.032-.7s.012-.46.032-.688a.892.892,0,0,0-.338-.777L3.591,11.742a.6.6,0,0,1-.133-.764L5.841,6.854A.6.6,0,0,1,6.573,6.6l2.5,1.007a.9.9,0,0,0,.846-.1,9.166,9.166,0,0,1,1.2-.7.888.888,0,0,0,.491-.677l.375-2.669a.617.617,0,0,1,.6-.511H17.35a.619.619,0,0,1,.6.495l.374,2.665a.9.9,0,0,0,.5.681,8.655,8.655,0,0,1,1.2.7.892.892,0,0,0,.842.1l2.5-1.007a.6.6,0,0,1,.732.255l2.383,4.124a.6.6,0,0,1-.136.766L24.211,13.4a.9.9,0,0,0-.337.785c.018.231.031.463.031.7Z" transform="translate(-2.528 -2.153)"/></svg>