<svg xmlns="http://www.w3.org/2000/svg" width="48.524" height="48.524" viewBox="0 0 48.524 48.524"><defs><style>.a{fill:none;}.b,.c,.d,.e{fill:#f4f4f4;}.b,.d{opacity:0.504;}.c{opacity:0.6;}.d,.e{fill-rule:evenodd;}</style></defs><rect class="a" width="48.524" height="48.524" transform="translate(0)"/><circle class="b" cx="16.175" cy="16.175" r="16.175" transform="translate(7.603 2.022)"/><path class="c" d="M22.7,13.044H12.449l5.083,13.07Zm-8.01,16.907L6.538,9h22.1L20.36,29.961l-2.828-1.117Z" transform="translate(6.196 9.196)"/><path class="d" d="M10,22h8.087a4.044,4.044,0,0,1-4.044,4.044h0A4.044,4.044,0,0,1,10,22Z" transform="translate(9.734 22.48)"/><path class="e" d="M10.022,24.087a2.022,2.022,0,0,1,0-4.044,2.022,2.022,0,1,1,0-4.044H22.153a2.022,2.022,0,1,1,0,4.044,2.022,2.022,0,0,1,0,4.044,2.022,2.022,0,0,1,0,4.044H10.022a2.022,2.022,0,0,1,0-4.044Z" transform="translate(7.69 16.349)"/></svg>