<svg xmlns="http://www.w3.org/2000/svg" width="30.098" height="30.098" viewBox="0 0 30.098 30.098"><defs><style>.a{fill:#3a405e;}</style></defs><path class="a" d="M15.049,8A15.049,15.049,0,1,0,30.1,23.049,15.046,15.046,0,0,0,15.049,8Zm0,5.825a5.34,5.34,0,1,1-5.34,5.34A5.34,5.34,0,0,1,15.049,13.825Zm0,20.875a11.628,11.628,0,0,1-8.89-4.138,6.766,6.766,0,0,1,5.977-3.629,1.485,1.485,0,0,1,.431.067,8.034,8.034,0,0,0,2.482.419A8,8,0,0,0,17.531,27a1.485,1.485,0,0,1,.431-.067,6.766,6.766,0,0,1,5.977,3.629A11.628,11.628,0,0,1,15.049,34.7Z" transform="translate(0 -8)"/></svg>