<svg xmlns="http://www.w3.org/2000/svg" width="18.219" height="16.636" viewBox="0 0 18.219 16.636"><defs><style>.a{fill:none;stroke:#fff;}</style></defs><path class="a" d="M3.351,38.353a2.234,2.234,0,1,0-2.234-2.234A2.236,2.236,0,0,0,3.351,38.353Zm7.167.465a3.909,3.909,0,1,0-3.909-3.909A3.907,3.907,0,0,0,10.517,38.818ZM13.2,39.935h-.29a5.4,5.4,0,0,1-4.782,0h-.29a4.022,4.022,0,0,0-4.021,4.021v1.005a1.676,1.676,0,0,0,1.675,1.675H15.543a1.676,1.676,0,0,0,1.675-1.675V43.956A4.022,4.022,0,0,0,13.2,39.935Zm-7.156.184a2.227,2.227,0,0,0-1.574-.649H2.234A2.236,2.236,0,0,0,0,41.7V42.82a1.116,1.116,0,0,0,1.117,1.117h2.3a5.118,5.118,0,0,1,2.625-3.818Z" transform="translate(0.5 -30.5)"/></svg>