<svg xmlns="http://www.w3.org/2000/svg" width="20.162" height="21.716" viewBox="0 0 20.162 21.716"><defs><style>.a{fill:#87c5fe;}</style></defs><path class="a" d="M18.51,16.183A3.873,3.873,0,0,0,15.5,17.647l-5.663-3.54a3.455,3.455,0,0,0,0-2.045L15.5,8.522a3.873,3.873,0,1,0-.86-2.409,3.711,3.711,0,0,0,.155,1.023l-5.663,3.54a3.873,3.873,0,1,0,0,4.818l5.663,3.54a3.711,3.711,0,0,0-.155,1.023,3.873,3.873,0,1,0,3.873-3.873Zm0-12.395a2.324,2.324,0,1,1-2.324,2.324A2.324,2.324,0,0,1,18.51,3.788Zm-12.4,11.62a2.324,2.324,0,1,1,2.324-2.324A2.324,2.324,0,0,1,6.115,15.408Zm12.4,6.972a2.324,2.324,0,1,1,2.324-2.324A2.324,2.324,0,0,1,18.51,22.38Z" transform="translate(-2.221 -2.214)"/></svg>