<svg xmlns="http://www.w3.org/2000/svg" width="15.715" height="14.458" viewBox="0 0 15.715 14.458"><defs><style>.a{fill:#fff;}</style></defs><path class="a" d="M12.043,18.132v5.029H5.757V18.132h6.286m0-1.257H5.757A1.257,1.257,0,0,0,4.5,18.132v5.029a1.257,1.257,0,0,0,1.257,1.257h6.286A1.257,1.257,0,0,0,13.3,23.161V18.132A1.257,1.257,0,0,0,12.043,16.875Z" transform="translate(-4.5 -9.96)"/><path class="a" d="M24.418,5.757V8.9H18.132V5.757h6.286m0-1.257H18.132a1.257,1.257,0,0,0-1.257,1.257V8.9a1.257,1.257,0,0,0,1.257,1.257h6.286A1.257,1.257,0,0,0,25.675,8.9V5.757A1.257,1.257,0,0,0,24.418,4.5Z" transform="translate(-9.96 -4.5)"/><path class="a" d="M26.9,18.132v3.143H23.757V18.132H26.9m0-1.257H23.757A1.257,1.257,0,0,0,22.5,18.132v3.143a1.257,1.257,0,0,0,1.257,1.257H26.9a1.257,1.257,0,0,0,1.257-1.257V18.132A1.257,1.257,0,0,0,26.9,16.875Z" transform="translate(-12.443 -9.96)"/><path class="a" d="M8.9,5.757V8.9H5.757V5.757H8.9M8.9,4.5H5.757A1.257,1.257,0,0,0,4.5,5.757V8.9a1.257,1.257,0,0,0,1.257,1.257H8.9A1.257,1.257,0,0,0,10.157,8.9V5.757A1.257,1.257,0,0,0,8.9,4.5Z" transform="translate(-4.5 -4.5)"/></svg>