<svg xmlns="http://www.w3.org/2000/svg" width="169.314" height="65.092" viewBox="0 0 169.314 65.092"><defs><style>.a{fill:#fff;}.b{fill:#489921;font-size:24px;font-family:Roboto-Bold, Roboto;font-weight:700;}.c{fill:none;}.d{fill:#e9fad7;}.e,.g{fill:#6dd400;}.e{opacity:0.3;}.f{fill:#e0ffbf;}.f,.g{fill-rule:evenodd;}</style></defs><g transform="translate(-58.742 -87.695)"><g transform="translate(-146.549 -910.172)"><path class="a" d="M561.2,1041.139a1.719,1.719,0,0,1-.564-1.354l-.075-7.568q-.038-2.559-.038-6.38v-2.189a1.72,1.72,0,0,1,.527-1.336,1.826,1.826,0,0,1,1.278-.482,2.04,2.04,0,0,1,1.373.5,1.737,1.737,0,0,1,.582,1.391v1.113a3.483,3.483,0,0,1,1.542-1.521,6.442,6.442,0,0,1,3.384-.928,4.246,4.246,0,0,1,2.143.445,1.7,1.7,0,0,1,.752,1.6,1.788,1.788,0,0,1-.451,1.243,1.681,1.681,0,0,1-1.316.5q-3.158,0-4.361.853a5.147,5.147,0,0,0-1.185,1.075,1.978,1.978,0,0,0-.508,1.224l.076,4.637.037,5.824a1.719,1.719,0,0,1-.564,1.354,1.979,1.979,0,0,1-2.632,0Z" transform="translate(-197.502 -14.053)"/><path class="a" d="M338.731,1038.228a9.862,9.862,0,0,1-.81-4c0-.053,0-.107,0-.16a14.676,14.676,0,0,0-1.005-6.093,9.828,9.828,0,0,0-4.18-4.406q-.248-.133-.5-.251a9.672,9.672,0,0,0-1.229-.469,10.317,10.317,0,0,0-7.817.854c-2.856,1.525-4.249,4.5-5.964,7.054a19.8,19.8,0,0,1-6.966,6.662,9.478,9.478,0,0,1-.906.435,12.578,12.578,0,0,1-2.677.743,11.527,11.527,0,0,1-2.326.063,8.376,8.376,0,0,1-1.8-.487,6.4,6.4,0,0,1-3.879-5.023,6.5,6.5,0,0,1,1.1-4.6,6.657,6.657,0,0,1,8.992-1.747,4.2,4.2,0,0,1,.737.551,12.734,12.734,0,0,1,1.1,1.218c.1.155.208.156-.355.156h-4.7a1.746,1.746,0,0,0-1.188.485,1.672,1.672,0,0,0-.492,1.172,1.7,1.7,0,0,0,1.681,1.658h2.408c.555,0,1.108-.019,1.663-.011q1,.013,2,.012a3.487,3.487,0,0,0,2.493-.584c1.409-1.268.342-3.329-.565-4.55a11.055,11.055,0,0,0-4.744-3.68l-.061-.024a9.934,9.934,0,0,0-6.9-.127,9.8,9.8,0,0,0-6.475,9.884,9.657,9.657,0,0,0,1.552,4.6,10.388,10.388,0,0,0,9.282,4.4c6.815-.445,11.546-5.586,14.846-10.984.95-1.554,1.871-3.437,3.665-4.379a7.309,7.309,0,0,1,5.676-.427,6.311,6.311,0,0,1,1.762.981,6.58,6.58,0,0,1-6.147,11.353,7.1,7.1,0,0,1-2.758-1.642c-.756-.688-1.47-1.853-2.671-1.443a1.652,1.652,0,0,0-.878,1.861,3.379,3.379,0,0,0,1.152,1.6,10.4,10.4,0,0,0,1.81,1.445,9.992,9.992,0,0,0,8.83.922c1.322-.487,3.2-1.4,3.872-2.712a10.266,10.266,0,0,0,.835,2.036c.524.907.752,1.241,1.311,1.428a1.747,1.747,0,0,0,2.192-1.18C339.869,1039.786,339.1,1039.115,338.731,1038.228Zm-27.984-9.763-.159-.2C310.65,1028.34,310.708,1028.407,310.748,1028.465Z" transform="translate(-21.689 -14.455)"/><path class="a" d="M513.533,1035.637a1.517,1.517,0,0,0-2.025-.24c-.615.444-.928.946-1.909,1.65a6.219,6.219,0,0,1-2.6,1.1,9.759,9.759,0,0,1-2.147.082,8.466,8.466,0,0,1-1.82-.492,6.467,6.467,0,0,1-3.919-5.073,6.565,6.565,0,0,1,1.108-4.65,6.725,6.725,0,0,1,9.083-1.765,4.239,4.239,0,0,1,.744.556,12.684,12.684,0,0,1,1.109,1.23c.1.157.211.157-.358.157h-4.751a1.764,1.764,0,0,0-1.2.49,1.692,1.692,0,0,0-.5,1.185,1.716,1.716,0,0,0,1.7,1.675h2.432c.561,0,1.12-.019,1.68-.011q1.01.013,2.019.012c.918,0,2.15.315,2.9-.415.991-.972.194-2.514-.3-3.521a10.718,10.718,0,0,0-2.2-3.026,8.779,8.779,0,0,0-3.655-2.179l-.043-.014c-.075-.025-.151-.048-.227-.071a9.929,9.929,0,0,0-5.7-.079,9.721,9.721,0,0,0-2.721,1.244,11.339,11.339,0,0,0-2.757,2.692,10.508,10.508,0,0,0-1.534,3.557,9.549,9.549,0,0,0-.042,3.948,7.17,7.17,0,0,0,.413,1.5,10.069,10.069,0,0,0,15.715,3.973q.24-.2.47-.412S514.553,1037.1,513.533,1035.637Zm-2.21-7.7-.161-.205C511.224,1027.809,511.282,1027.877,511.323,1027.935Z" transform="translate(-154.531 -14.074)"/><path class="a" d="M447.627,1027.262a1.535,1.535,0,0,1-.644-1.117c.064.319-1.457.836-1.692.925a9.943,9.943,0,0,1-12.544-4.549,9.817,9.817,0,0,1,2.492-12.155,10.235,10.235,0,0,1,8.149-2.052,14.154,14.154,0,0,1,3.412,1.318l-.226-6.705a1.839,1.839,0,0,1,.545-1.335,1.775,1.775,0,0,1,1.316-.557,1.871,1.871,0,0,1,1.335.538,1.709,1.709,0,0,1,.564,1.28q.263,16.916.263,22.888a1.779,1.779,0,0,1-.545,1.317,1.828,1.828,0,0,1-1.335.538A1.89,1.89,0,0,1,447.627,1027.262Zm-2.88-3.821.077-.046a4.613,4.613,0,0,0,1.976-2.292q0-4.711-.075-7.494a.077.077,0,0,1-.075-.037c-1.037-2.216-4.447-2.7-6.677-2.039a6.8,6.8,0,0,0-4.434,5.622,6.266,6.266,0,0,0,9.209,6.284Z" transform="translate(-112.046 -0.173)"/><path class="a" d="M264.781,1027.52a1.888,1.888,0,0,1-1.239-.537,1.771,1.771,0,0,1-.563-1.241,1.675,1.675,0,0,1-.037-.333q-.038-2.112-.188-9.965t-.15-12.817a1.777,1.777,0,0,1,.544-1.315,1.922,1.922,0,0,1,2.666,0,1.778,1.778,0,0,1,.544,1.315q0,3.743.056,7.187t.15,7.575q.094,4.131.094,6.464c1.3.024-.637.013,2.054-.037s2.179-.061,3.581-.037a1.735,1.735,0,0,1,1.314.555,1.874,1.874,0,0,1,.526,1.334,1.688,1.688,0,0,1-.563,1.3,1.926,1.926,0,0,1-1.352.519c-1.352-.024-1.122,0-4.426.074A16.17,16.17,0,0,1,264.781,1027.52Z" transform="translate(0)"/></g><text class="b" transform="translate(114.054 145.787)"><tspan x="0" y="0">Hub</tspan></text><g transform="translate(57.742 87.695)"><rect class="c" width="57.313" height="57.313" transform="translate(1)"/><circle class="d" cx="19.104" cy="19.104" r="19.104" transform="translate(9.98 2.388)"/><path class="e" d="M25.622,13.776H13.52l6,15.437Zm-9.461,19.97L6.538,9H32.644L22.863,33.758l-3.34-1.319Z" transform="translate(9.503 12.492)"/><path class="f" d="M10,22h9.552a4.776,4.776,0,0,1-4.776,4.776h0A4.776,4.776,0,0,1,10,22Z" transform="translate(14.308 30.536)"/><path class="g" d="M10.388,25.552a2.388,2.388,0,0,1,0-4.776,2.388,2.388,0,1,1,0-4.776H24.716a2.388,2.388,0,0,1,0,4.776,2.388,2.388,0,0,1,0,4.776,2.388,2.388,0,0,1,0,4.776H10.388a2.388,2.388,0,0,1,0-4.776Z" transform="translate(11.532 22.208)"/></g></g></svg>