<svg xmlns="http://www.w3.org/2000/svg" xmlns:xlink="http://www.w3.org/1999/xlink" width="140.651" height="148.914" viewBox="0 0 140.651 148.914"><defs><style>.a{fill:url(#a);}.b{fill:#245300;}.c{fill:#9dff00;}</style><linearGradient id="a" x1="0.798" y1="1.277" x2="0.325" y2="-0.644" gradientUnits="objectBoundingBox"><stop offset="0" stop-color="#008177"/><stop offset="1" stop-color="#00ff58"/></linearGradient></defs><g transform="matrix(-0.309, 0.951, -0.951, -0.309, 402.466, -343.23)"><path class="a" d="M504.016,155.456c-35.69-22.81-60.563-21.311-69.026-19.818a3.52,3.52,0,0,0-2.869,3.991c1.282,8.5,7.784,32.552,40.776,59.115,0,0,19.525,15.811,46.087,20.349l9.5-13.217,9.5-13.217C525.223,168.926,504.016,155.456,504.016,155.456Z"/><path class="b" d="M544.229,204.272,531.58,221.534l-6.088-6,11.11-15.121Z"/><rect class="b" width="25.941" height="10.074" transform="matrix(0.584, -0.812, 0.812, 0.584, 517.479, 213.938)"/><path class="c" d="M486.376,200.623l7.04,25.229a12.453,12.453,0,0,0,6.178,7.662l30.181,15.944a2.675,2.675,0,0,0,3.8-1.57h0a2.671,2.671,0,0,0-.763-2.78c-5.019-4.524-23-21.906-20.95-36.99Z"/><path class="c" d="M510.4,167.2l26.157-1.364a12.455,12.455,0,0,1,9.231,3.415l24.728,23.53a2.673,2.673,0,0,1-.277,4.1h0a2.67,2.67,0,0,1-2.877.163c-5.887-3.317-28.094-14.827-41.737-8.074Z"/><path class="c" d="M555.349,222.752l-2.029,2.821a1.426,1.426,0,0,1-1.965.343l-49.906-34.334a1.76,1.76,0,0,1-.432-2.476l3.1-4.314a1.76,1.76,0,0,1,2.485-.38l48.444,36.367A1.426,1.426,0,0,1,555.349,222.752Z"/><circle class="c" cx="13.891" cy="13.891" r="13.891" transform="matrix(0.41, -0.912, 0.912, 0.41, 460.486, 176.867)"/><path class="b" d="M484.186,162.484a9.009,9.009,0,1,1-12.573,2.057A9.01,9.01,0,0,1,484.186,162.484Z"/></g></svg>