<svg xmlns="http://www.w3.org/2000/svg" width="16.822" height="14.369" viewBox="0 0 16.822 14.369"><defs><style>.a{fill:none;stroke:#fff;stroke-linecap:round;stroke-linejoin:round;stroke-width:1.5px;}</style></defs><g transform="translate(-2.625 -5.065)"><path class="a" d="M17.871,9.094,11.436,5.918a.905.905,0,0,0-.8,0L4.2,9.094a1.473,1.473,0,0,0-.825,1.318v6.8a1.483,1.483,0,0,0,1.492,1.473H17.205A1.483,1.483,0,0,0,18.7,17.211v-6.8a1.473,1.473,0,0,0-.827-1.318Z" transform="translate(0 0)"/><path class="a" d="M18.294,22.339l-4.76-3.7a.884.884,0,0,0-1.085,0l-4.761,3.7" transform="translate(-2.053 -6.013)"/><path class="a" d="M21.75,17.293,26.759,13.5" transform="translate(-8.75 -3.655)"/><path class="a" d="M4.312,13.5l5.119,3.867" transform="translate(-0.446 -3.655)"/></g></svg>