<svg xmlns="http://www.w3.org/2000/svg" width="38" height="40" viewBox="0 0 38 40"><defs><style>.a,.b{fill:#68c7cb;}.a{opacity:0.156;}</style></defs><g transform="translate(-1146 -719)"><g transform="translate(794 -159)"><g transform="translate(-688.111 -1008.435)"><rect class="a" width="38" height="40" rx="5" transform="translate(1040.111 1886.435)"/></g></g><g transform="translate(1151.018 726.625)"><path class="b" d="M15.188,3.7a3.616,3.616,0,1,1-3.616,3.616A3.616,3.616,0,0,1,15.188,3.7m0-1.446A5.063,5.063,0,1,0,20.25,7.312,5.062,5.062,0,0,0,15.188,2.25Z" transform="translate(-1.205 0)"/><path class="b" d="M21.214,28.929H19.768V25.313A3.616,3.616,0,0,0,16.152,21.7H11.813A3.616,3.616,0,0,0,8.2,25.313v3.616H6.75V25.313a5.062,5.062,0,0,1,5.063-5.062h4.339a5.063,5.063,0,0,1,5.063,5.063Z" transform="translate(0 -6.429)"/></g></g></svg>