<svg xmlns="http://www.w3.org/2000/svg" width="16.675" height="18.462" viewBox="0 0 16.675 18.462"><defs><style>.a,.b{fill:#fff;}.a{fill-rule:evenodd;}</style></defs><g transform="translate(-2.25 -1.125)"><path class="a" d="M17.734,10.062H3.441v9.559a1.132,1.132,0,0,0,1.191,1.062H16.543a1.132,1.132,0,0,0,1.191-1.062ZM2.25,9V19.621a2.264,2.264,0,0,0,2.382,2.124H16.543a2.264,2.264,0,0,0,2.382-2.124V9Z" transform="translate(0 -2.159)"/><path class="b" d="M15.841,2.758a4.083,4.083,0,0,0-4.083,4.083H10.125a5.716,5.716,0,1,1,11.432,0H19.924A4.083,4.083,0,0,0,15.841,2.758Z" transform="translate(-5.254)"/><path class="a" d="M21.118,17.112a.817.817,0,0,1,0,1.156l-4.9,4.9a.817.817,0,0,1-1.156,0l-2.45-2.45a.818.818,0,1,1,1.156-1.156l1.872,1.873,4.322-4.323a.817.817,0,0,1,1.156,0Z" transform="translate(-6.052 -8.488)"/></g></svg>