<svg xmlns="http://www.w3.org/2000/svg" width="20.537" height="20.537" viewBox="0 0 20.537 20.537"><defs><style>.a,.b{fill:none;stroke:#778ca2;}.a{opacity:0;}</style></defs><g transform="translate(0.5 0.5)"><rect class="a" width="19.537" height="19.537"/><path class="b" d="M3.256,6.512A3.256,3.256,0,1,0,0,3.256,3.256,3.256,0,0,0,3.256,6.512Z" transform="translate(4.07 2.442)"/><path class="b" d="M2.442,4.884A2.442,2.442,0,1,0,0,2.442,2.442,2.442,0,0,0,2.442,4.884Z" transform="translate(11.396 5.698)"/><path class="b" d="M15.467,5.691a.814.814,0,0,0,.814-.814A4.07,4.07,0,0,0,9.72,1.661,5.7,5.7,0,0,0,0,5.691.814.814,0,0,0,.814,6.5h9.768c.45,0,.814-.814.814-.814Z" transform="translate(1.628 10.59)"/></g></svg>